<?xml version="1.0" encoding="UTF-8"?>
<svg xmlns="http://www.w3.org/2000/svg" xmlns:xlink="http://www.w3.org/1999/xlink" width="136.63pt" height="136.77pt" viewBox="0 0 136.63 136.77" version="1.1">
<defs>
<clipPath id="clip1">
  <path d="M 0 0 L 136.628906 0 L 136.628906 136.769531 L 0 136.769531 Z M 0 0 "/>
</clipPath>
</defs>
<g id="surface1">
<g clip-path="url(#clip1)" clip-rule="nonzero">
<path style=" stroke:none;fill-rule:nonzero;fill:rgb(21.998596%,11.399841%,32.899475%);fill-opacity:1;" d="M 37.167969 8.675781 C 36.542969 8.964844 36.1875 9.085938 35.878906 9.28125 C 29.78125 13.046875 24.324219 17.574219 19.6875 23.046875 C 11.253906 32.988281 6.425781 44.480469 5.332031 57.464844 C 4.574219 66.503906 4.664063 75.523438 7.042969 84.386719 C 17.8125 124.550781 62.800781 143.679688 99.214844 123.570313 C 99.566406 123.375 99.933594 123.207031 100.53125 122.90625 C 100.101563 124.777344 99.734375 126.363281 99.304688 128.21875 C 99.972656 127.914063 100.34375 127.792969 100.660156 127.589844 C 111.214844 120.945313 119.644531 112.308594 125.128906 101.023438 C 132.398438 86.058594 133.453125 70.253906 129.988281 54.300781 C 121.066406 13.246094 74.820313 -7.566406 37.925781 12.585938 C 37.402344 12.875 36.863281 13.144531 36.046875 13.570313 C 36.457031 11.785156 36.78125 10.375 37.167969 8.675781 Z M 68.3125 -0.00390625 C 105.949219 -0.0390625 136.574219 30.644531 136.632813 68.445313 C 136.6875 106.195313 105.960938 136.746094 67.914063 136.769531 C 30.601563 136.792969 0.00390625 105.996094 0 68.417969 C -0.00390625 30.65625 30.574219 0.03125 68.3125 -0.00390625 "/>
</g>
<path style=" stroke:none;fill-rule:nonzero;fill:rgb(100%,100%,100%);fill-opacity:1;" d="M 37.269531 8.675781 C 36.878906 10.375 36.554688 11.785156 36.148438 13.570313 C 36.960938 13.144531 37.5 12.875 38.027344 12.585938 C 74.917969 -7.566406 121.164063 13.246094 130.085938 54.300781 C 133.554688 70.253906 132.496094 86.058594 125.226563 101.023438 C 119.742188 112.308594 111.3125 120.945313 100.761719 127.589844 C 100.441406 127.792969 100.070313 127.914063 99.40625 128.21875 C 99.832031 126.363281 100.199219 124.777344 100.628906 122.90625 C 100.03125 123.207031 99.664063 123.375 99.3125 123.570313 C 62.898438 143.679688 17.910156 124.550781 7.140625 84.386719 C 4.765625 75.523438 4.671875 66.503906 5.433594 57.464844 C 6.523438 44.480469 11.355469 32.988281 19.785156 23.046875 C 24.421875 17.574219 29.882813 13.046875 35.976563 9.28125 C 36.289063 9.085938 36.644531 8.964844 37.269531 8.675781 "/>
<path style=" stroke:none;fill-rule:nonzero;fill:rgb(21.998596%,11.399841%,32.899475%);fill-opacity:1;" d="M 92.367188 59.09375 C 91.289063 59.839844 90.421875 60.398438 89.597656 61.023438 C 89.316406 61.238281 89.042969 61.589844 88.964844 61.921875 C 88.015625 65.789063 90.351563 68.304688 92.734375 71.046875 C 94.433594 66.917969 93.910156 63.097656 92.367188 59.09375 Z M 77.515625 76.222656 C 77.960938 77.078125 78.617188 78.21875 79.152344 79.410156 C 79.546875 80.285156 80.0625 80.484375 80.886719 80.066406 C 82.402344 79.308594 83.917969 78.5625 85.613281 77.722656 C 85.816406 79.3125 86.015625 80.886719 86.21875 82.496094 C 86.4375 82.449219 86.605469 82.460938 86.703125 82.386719 C 88.992188 80.601563 90.464844 78.195313 90.660156 75.394531 C 90.753906 74.09375 89.84375 72.214844 88.777344 71.496094 C 87.875 70.886719 85.910156 71.1875 84.75 71.757813 C 82.277344 72.980469 80.023438 74.640625 77.515625 76.222656 Z M 71.152344 64.273438 C 72.351563 66.535156 73.535156 68.632813 74.578125 70.800781 C 75.089844 71.867188 75.75 72.09375 76.816406 71.835938 C 80.339844 70.976563 83.050781 68.761719 85.769531 66.546875 C 85.910156 66.433594 86.058594 66.226563 86.0625 66.0625 C 86.078125 64.585938 86.273438 63.058594 85.957031 61.652344 C 85.824219 61.070313 84.570313 60.742188 83.828125 60.292969 C 83.363281 60.011719 82.9375 59.617188 82.4375 59.464844 C 81.738281 59.253906 80.917969 58.984375 80.265625 59.160156 C 76.878906 60.085938 74.042969 62.046875 71.152344 64.273438 Z M 82.238281 105.347656 C 81.773438 103.660156 81.371094 102.210938 81.050781 101.050781 C 77.683594 102.433594 74.546875 104.03125 71.230469 105.019531 C 65.269531 106.792969 59.339844 106.417969 53.585938 103.839844 C 52.367188 103.292969 52.046875 102.671875 52.328125 101.363281 C 53.546875 95.613281 53.996094 89.835938 52.527344 84.046875 C 52.441406 83.710938 52.347656 83.378906 52.238281 83.050781 C 52.195313 82.925781 52.085938 82.824219 51.847656 82.484375 C 48.800781 86.847656 45.671875 91 41.3125 94.398438 C 37.902344 86.964844 37.917969 79.367188 38.886719 71.429688 C 36.804688 72.042969 34.867188 72.613281 32.679688 73.257813 C 33.464844 66.300781 36.082031 60.351563 40.175781 54.75 C 38.863281 54.492188 37.734375 54.269531 36.4375 54.015625 C 39.046875 48.722656 42.625 44.390625 47.511719 40.664063 C 46.6875 44.472656 46.882813 47.679688 50.25 49.914063 C 49.988281 48.792969 49.648438 47.6875 49.488281 46.550781 C 49.367188 45.6875 49.351563 44.769531 49.511719 43.917969 C 50.09375 40.734375 52.449219 39.375 55.535156 40.359375 C 56.121094 40.546875 56.6875 40.789063 57.585938 41.128906 C 56.71875 38.898438 55.152344 37.984375 53.40625 37.257813 C 53.386719 37.097656 53.367188 36.941406 53.347656 36.78125 C 56.238281 35.878906 59.082031 34.761719 62.03125 34.132813 C 64.664063 33.566406 67.414063 33.550781 70.109375 33.277344 C 72.675781 33.023438 74.714844 34.027344 76.449219 35.835938 C 77.042969 36.460938 77.691406 37.035156 78.3125 37.632813 C 78.441406 37.570313 78.570313 37.507813 78.699219 37.445313 C 78.492188 36.476563 78.285156 35.507813 78.050781 34.40625 C 78.375 34.4375 78.691406 34.421875 78.980469 34.5 C 82.101563 35.367188 85.035156 36.621094 87.578125 38.667969 C 87.996094 39.003906 88.542969 39.367188 88.683594 39.824219 C 89.316406 41.871094 89.828125 43.953125 90.335938 45.859375 C 87.429688 43.839844 84.417969 41.75 81.25 39.546875 C 80.757813 41.097656 80.410156 42.191406 80.035156 43.371094 C 77.785156 42 75.773438 40.660156 73.648438 39.542969 C 72.859375 39.125 71.757813 38.976563 70.871094 39.128906 C 67.320313 39.734375 64.046875 41.054688 61.0625 43.527344 C 61.601563 43.910156 62.109375 44.273438 62.851563 44.800781 C 60.621094 45.90625 58.742188 46.90625 57.207031 49.105469 C 59.84375 48.6875 60.144531 50.382813 60.898438 51.933594 C 62.160156 54.527344 64.542969 55.824219 67.390625 55.929688 C 70.875 56.058594 74.363281 55.960938 78 55.960938 C 76.96875 54.90625 75.792969 53.777344 74.710938 52.566406 C 73.484375 51.199219 72.003906 50.714844 70.207031 50.867188 C 67.660156 51.082031 65.328125 50.472656 63.285156 48.863281 C 66.078125 45.535156 68.6875 45.453125 74.335938 48.445313 C 75.269531 47.964844 76.167969 47.503906 77.0625 47.042969 C 77.195313 47.296875 77.292969 47.402344 77.269531 47.449219 C 76.074219 49.980469 76.089844 49.960938 78.070313 51.992188 C 79.273438 53.222656 80.40625 54.523438 81.488281 55.699219 C 83.011719 55.433594 84.496094 55.027344 86 54.957031 C 87.5 54.886719 89.015625 55.15625 90.660156 55.289063 C 88.421875 52.9375 86.257813 50.660156 84.09375 48.386719 C 84.238281 48.203125 84.386719 48.019531 84.535156 47.832031 C 85.351563 48.296875 86.164063 48.765625 87.035156 49.261719 C 88.011719 49.0625 88.644531 47.082031 90.046875 48.421875 C 91.085938 49.417969 90.992188 50.457031 89.941406 51.679688 C 90.765625 52.550781 91.59375 53.425781 92.585938 54.480469 C 92.800781 53.820313 92.929688 53.433594 93.050781 53.0625 C 93.203125 53.078125 93.339844 53.050781 93.371094 53.097656 C 100.585938 63.304688 102.628906 74.328125 98.617188 86.589844 C 97.609375 85.53125 96.757813 84.632813 95.644531 83.460938 C 94.945313 88.148438 93.773438 92.28125 91.449219 96.011719 C 89.113281 99.753906 86.097656 102.804688 82.238281 105.347656 "/>
<path style=" stroke:none;fill-rule:nonzero;fill:rgb(21.998596%,11.399841%,32.899475%);fill-opacity:1;" d="M 76.191406 19.484375 C 76.425781 22.5 76.625 25.035156 76.855469 27.984375 C 78.5625 26.117188 79.996094 24.550781 81.425781 22.984375 C 81.535156 23.089844 81.644531 23.195313 81.753906 23.304688 C 81.109375 26.25 80.464844 29.195313 79.796875 32.253906 C 69.777344 29.765625 60.148438 30.816406 51.023438 35.789063 C 49.679688 32.929688 48.367188 30.140625 46.828125 26.863281 C 48.945313 28.191406 50.746094 29.320313 52.8125 30.617188 C 52.386719 27.800781 52 25.25 51.546875 22.285156 C 54.714844 24.464844 57.566406 26.429688 60.597656 28.511719 C 61.636719 25.511719 62.613281 22.6875 63.722656 19.488281 C 65.480469 22.289063 67.078125 24.835938 68.808594 27.589844 C 71.265625 24.890625 73.59375 22.335938 76.191406 19.484375 "/>
<path style=" stroke:none;fill-rule:nonzero;fill:rgb(21.998596%,11.399841%,32.899475%);fill-opacity:1;" d="M 14.523438 86.878906 C 14.292969 86.296875 14.136719 85.894531 13.921875 85.347656 C 15.785156 84.578125 17.589844 83.835938 19.582031 83.011719 C 20.207031 84.652344 20.796875 86.199219 21.503906 88.054688 C 21.761719 88.628906 22.429688 89.488281 22.492188 90.390625 C 22.582031 91.65625 21.425781 92.136719 20.378906 92.539063 C 19.417969 92.90625 18.472656 93.3125 17.394531 93.75 C 17.171875 93.242188 16.984375 92.816406 16.734375 92.242188 C 17.878906 91.765625 18.960938 91.417969 19.929688 90.871094 C 20.328125 90.644531 20.484375 89.996094 20.75 89.539063 C 20.21875 89.371094 19.632813 88.976563 19.164063 89.085938 C 18.125 89.332031 17.144531 89.832031 16.011719 90.277344 C 15.792969 89.832031 15.585938 89.417969 15.304688 88.855469 C 16.433594 88.367188 17.507813 88.007813 18.453125 87.441406 C 18.871094 87.191406 19.027344 86.507813 19.300781 86.019531 C 18.753906 85.882813 18.15625 85.535156 17.671875 85.652344 C 16.640625 85.914063 15.667969 86.414063 14.523438 86.878906 "/>
<path style=" stroke:none;fill-rule:nonzero;fill:rgb(21.998596%,11.399841%,32.899475%);fill-opacity:1;" d="M 35.996094 102.863281 C 36.488281 103.265625 36.859375 103.570313 37.371094 103.988281 C 35.777344 105.980469 34.226563 107.921875 32.558594 110.011719 C 33.542969 110.832031 34.507813 111.636719 35.597656 112.546875 C 35.277344 112.964844 34.96875 113.363281 34.582031 113.863281 C 33.066406 112.636719 31.625 111.476563 30.074219 110.21875 C 32.0625 107.75 33.964844 105.386719 35.996094 102.863281 "/>
<path style=" stroke:none;fill-rule:nonzero;fill:rgb(21.998596%,11.399841%,32.899475%);fill-opacity:1;" d="M 62.640625 118.378906 C 63.863281 118.148438 64.324219 118.539063 64.089844 119.695313 C 63.953125 120.371094 63.902344 121.0625 63.789063 121.746094 C 63.488281 123.582031 62.203125 124.601563 60.492188 124.382813 C 58.664063 124.144531 57.691406 123 57.824219 121.128906 C 57.90625 120.007813 58.101563 118.894531 58.261719 117.640625 C 58.835938 117.734375 59.292969 117.808594 59.871094 117.902344 C 59.71875 119.042969 59.433594 120.070313 59.503906 121.070313 C 59.542969 121.644531 60.046875 122.441406 60.550781 122.664063 C 61.359375 123.023438 61.945313 122.398438 62.113281 121.558594 C 62.324219 120.507813 62.46875 119.4375 62.640625 118.378906 "/>
<path style=" stroke:none;fill-rule:nonzero;fill:rgb(21.998596%,11.399841%,32.899475%);fill-opacity:1;" d="M 16.78125 76.019531 C 15.925781 72.765625 13.535156 74.917969 11.753906 74.277344 C 11.707031 73.972656 11.640625 73.523438 11.546875 72.90625 C 13.625 72.660156 15.601563 72.425781 17.574219 72.1875 C 17.730469 73.453125 17.867188 74.535156 18.019531 75.730469 C 17.707031 75.804688 17.296875 75.898438 16.78125 76.019531 "/>
<path style=" stroke:none;fill-rule:nonzero;fill:rgb(21.998596%,11.399841%,32.899475%);fill-opacity:1;" d="M 25.0625 104.992188 C 24.792969 104.65625 24.527344 104.320313 24.164063 103.871094 C 25.703125 102.523438 27.175781 101.226563 28.652344 99.933594 C 29.457031 100.824219 30.234375 101.691406 31.15625 102.71875 C 30.914063 102.929688 30.59375 103.210938 30.210938 103.546875 C 27.71875 101.230469 26.921875 104.460938 25.0625 104.992188 "/>
<path style=" stroke:none;fill-rule:nonzero;fill:rgb(21.998596%,11.399841%,32.899475%);fill-opacity:1;" d="M 19.089844 96.53125 C 18.804688 96.050781 18.570313 95.652344 18.242188 95.097656 C 20.058594 94.074219 21.785156 93.097656 23.597656 92.074219 C 23.886719 92.5625 24.132813 92.96875 24.449219 93.5 C 22.648438 94.519531 20.917969 95.496094 19.089844 96.53125 "/>
<path style=" stroke:none;fill-rule:nonzero;fill:rgb(21.998596%,11.399841%,32.899475%);fill-opacity:1;" d="M 25.753906 90.367188 C 26.226563 91.078125 26.726563 91.5 26.679688 91.847656 C 26.628906 92.222656 26.074219 92.535156 25.738281 92.875 C 25.394531 92.527344 24.832031 92.214844 24.777344 91.832031 C 24.730469 91.492188 25.253906 91.074219 25.753906 90.367188 "/>
<path style=" stroke:none;fill-rule:nonzero;fill:rgb(100%,100%,100%);fill-opacity:1;" d="M 71.152344 64.273438 C 74.042969 62.046875 76.878906 60.085938 80.265625 59.160156 C 80.917969 58.984375 81.738281 59.253906 82.4375 59.464844 C 82.9375 59.617188 83.363281 60.011719 83.828125 60.292969 C 84.570313 60.742188 85.824219 61.070313 85.957031 61.652344 C 86.273438 63.058594 86.078125 64.585938 86.0625 66.0625 C 86.058594 66.226563 85.910156 66.433594 85.769531 66.546875 C 83.050781 68.761719 80.339844 70.976563 76.816406 71.835938 C 75.75 72.09375 75.089844 71.867188 74.578125 70.800781 C 73.535156 68.632813 72.351563 66.535156 71.152344 64.273438 "/>
<path style=" stroke:none;fill-rule:nonzero;fill:rgb(100%,100%,100%);fill-opacity:1;" d="M 77.515625 76.222656 C 80.023438 74.640625 82.277344 72.980469 84.75 71.757813 C 85.910156 71.1875 87.875 70.886719 88.777344 71.496094 C 89.84375 72.214844 90.753906 74.09375 90.660156 75.394531 C 90.464844 78.195313 88.992188 80.601563 86.703125 82.386719 C 86.605469 82.460938 86.4375 82.449219 86.21875 82.496094 C 86.015625 80.886719 85.816406 79.3125 85.613281 77.722656 C 83.917969 78.5625 82.402344 79.308594 80.886719 80.066406 C 80.0625 80.484375 79.546875 80.285156 79.152344 79.410156 C 78.617188 78.21875 77.960938 77.078125 77.515625 76.222656 "/>
<path style=" stroke:none;fill-rule:nonzero;fill:rgb(100%,100%,100%);fill-opacity:1;" d="M 92.367188 59.09375 C 93.910156 63.097656 94.433594 66.917969 92.734375 71.046875 C 90.351563 68.304688 88.015625 65.789063 88.964844 61.921875 C 89.042969 61.589844 89.316406 61.238281 89.597656 61.023438 C 90.421875 60.398438 91.289063 59.839844 92.367188 59.09375 "/>
<path style=" stroke:none;fill-rule:nonzero;fill:rgb(21.998596%,11.399841%,32.899475%);fill-opacity:1;" d="M 55.34375 119.992188 C 54.671875 120.398438 54.03125 121.070313 53.328125 121.148438 C 52.296875 121.261719 51.753906 120.433594 51.816406 119.417969 C 51.878906 118.457031 52.542969 117.765625 53.464844 117.96875 C 54.164063 118.125 54.746094 118.824219 55.378906 119.28125 C 55.367188 119.519531 55.355469 119.757813 55.34375 119.992188 Z M 55.179688 117.070313 C 53.9375 116.097656 52.738281 116.105469 51.488281 116.839844 C 50.265625 117.558594 49.761719 119.167969 50.199219 120.617188 C 50.589844 121.910156 51.738281 122.703125 53.242188 122.714844 C 53.503906 122.714844 53.765625 122.714844 54.089844 122.714844 C 53.269531 124.457031 52.3125 124.4375 50.113281 122.71875 C 49.804688 122.980469 49.480469 123.253906 49.09375 123.585938 C 50.992188 126.160156 54.398438 126.351563 55.398438 123.972656 C 56.261719 121.917969 56.730469 119.695313 57.40625 117.445313 C 56.496094 117.3125 55.648438 117.433594 55.179688 117.070313 "/>
<path style=" stroke:none;fill-rule:nonzero;fill:rgb(21.998596%,11.399841%,32.899475%);fill-opacity:1;" d="M 18.441406 69.171875 C 18.28125 69.417969 17.191406 69.449219 17.003906 69.207031 C 16.523438 68.585938 16.308594 67.757813 15.878906 66.75 C 17.261719 66.75 18.085938 66.75 19.320313 66.75 C 19.007813 67.683594 18.867188 68.519531 18.441406 69.171875 Z M 20.761719 64.988281 C 17.585938 64.988281 14.554688 64.988281 11.460938 64.988281 C 11.460938 65.574219 11.460938 66.074219 11.460938 66.625 C 12.492188 66.671875 13.414063 66.714844 14.457031 66.761719 C 14.496094 67.484375 14.496094 68.027344 14.5625 68.5625 C 14.769531 70.242188 16.003906 71.332031 17.664063 71.339844 C 19.234375 71.34375 20.558594 70.296875 20.734375 68.699219 C 20.867188 67.5 20.761719 66.273438 20.761719 64.988281 "/>
<path style=" stroke:none;fill-rule:nonzero;fill:rgb(21.998596%,11.399841%,32.899475%);fill-opacity:1;" d="M 46.28125 118.496094 C 45.714844 118.496094 44.804688 117.695313 44.652344 117.089844 C 44.421875 116.179688 45.109375 115.265625 46.121094 115.347656 C 46.808594 115.402344 47.449219 116.082031 48.109375 116.480469 C 48.121094 116.722656 48.132813 116.964844 48.144531 117.207031 C 47.523438 117.671875 46.902344 118.496094 46.28125 118.496094 Z M 48.21875 114.554688 C 47.195313 113.691406 46.117188 113.460938 44.925781 113.890625 C 43.585938 114.375 42.882813 115.460938 42.847656 116.847656 C 42.8125 118.09375 43.316406 119.210938 44.53125 119.734375 C 45.613281 120.199219 46.773438 120.484375 48.050781 120.902344 C 48.824219 119.1875 49.640625 117.378906 50.460938 115.558594 C 49.613281 115.195313 48.785156 115.03125 48.21875 114.554688 "/>
<path style=" stroke:none;fill-rule:nonzero;fill:rgb(21.998596%,11.399841%,32.899475%);fill-opacity:1;" d="M 41.378906 113.769531 C 40.421875 113.15625 39.699219 112.695313 38.914063 112.191406 C 40.421875 111.445313 41.117188 111.839844 41.378906 113.769531 Z M 42.019531 115.480469 C 43.226563 113.980469 43.246094 112.464844 42.144531 111.285156 C 41.015625 110.074219 39.15625 109.917969 37.84375 110.917969 C 36.519531 111.925781 36.113281 113.785156 36.921875 115.148438 C 37.777344 116.589844 39.484375 117.199219 41.296875 116.394531 C 40.667969 115.976563 40.265625 115.582031 39.789063 115.425781 C 38.773438 115.101563 38.023438 114.660156 38.164063 113.21875 C 39.515625 114.011719 40.726563 114.722656 42.019531 115.480469 "/>
<path style=" stroke:none;fill-rule:nonzero;fill:rgb(21.998596%,11.399841%,32.899475%);fill-opacity:1;" d="M 69.445313 120.808594 C 68.503906 120.808594 67.675781 120.808594 66.722656 120.808594 C 67.675781 119.472656 68.269531 119.464844 69.445313 120.808594 Z M 69.046875 123.164063 C 67.910156 123.71875 67.273438 123.386719 66.71875 122.125 C 68.191406 122.125 69.59375 122.125 71.082031 122.125 C 71.097656 119.886719 70.246094 118.703125 68.597656 118.386719 C 67.1875 118.117188 65.652344 118.933594 65.085938 120.257813 C 64.464844 121.722656 64.953125 123.5 66.210938 124.335938 C 67.539063 125.21875 69.394531 124.96875 70.617188 123.726563 C 70.304688 122.949219 69.914063 122.738281 69.046875 123.164063 "/>
<path style=" stroke:none;fill-rule:nonzero;fill:rgb(21.998596%,11.399841%,32.899475%);fill-opacity:1;" d="M 25.214844 99.167969 C 24.75 98.488281 24.285156 97.808594 23.820313 97.132813 C 23.90625 97.011719 23.988281 96.890625 24.074219 96.765625 C 24.550781 97.046875 25.167969 97.222656 25.460938 97.628906 C 25.730469 98.003906 25.648438 98.632813 25.722656 99.148438 C 25.550781 99.15625 25.382813 99.160156 25.214844 99.167969 Z M 26.992188 97.265625 C 26.328125 95.789063 24.792969 95.042969 23.214844 95.429688 C 21.679688 95.808594 20.65625 97.242188 20.773438 98.847656 C 20.894531 100.492188 22.09375 101.695313 24.230469 101.886719 C 23.855469 101.222656 23.703125 100.667969 23.339844 100.375 C 22.238281 99.484375 22.054688 98.941406 22.789063 97.804688 C 23.640625 98.980469 24.472656 100.121094 25.355469 101.335938 C 27.152344 100.136719 27.664063 98.769531 26.992188 97.265625 "/>
<path style=" stroke:none;fill-rule:nonzero;fill:rgb(21.998596%,11.399841%,32.899475%);fill-opacity:1;" d="M 16.816406 81.292969 C 16.597656 80.324219 16.414063 79.484375 16.195313 78.503906 C 17.835938 79.265625 18 80.007813 16.816406 81.292969 Z M 19.070313 79.925781 C 19 78.378906 17.976563 77.203125 16.488281 76.957031 C 14.875 76.6875 13.394531 77.4375 12.832031 78.804688 C 12.183594 80.386719 12.773438 82.09375 14.40625 83.171875 C 14.636719 82.832031 14.871094 82.492188 15.09375 82.160156 C 14.257813 81.101563 13.503906 80.105469 14.910156 78.746094 C 15.328125 80.296875 15.707031 81.691406 16.105469 83.175781 C 18.269531 82.644531 19.148438 81.632813 19.070313 79.925781 "/>
</g>
</svg>
